<?xml version="1.0" encoding="utf-8"?>
<svg xmlns="http://www.w3.org/2000/svg" viewBox="85.179 113.46 75.532 75.532" width="75.532px" height="75.532px" xmlns:bx="https://boxy-svg.com"><defs><filter id="drop-shadow-filter-0" bx:preset="drop-shadow 1 1 1 1 0.39 rgba(0,0,0,0.3)" color-interpolation-filters="sRGB" x="-50%" y="-50%" width="200%" height="200%"><feGaussianBlur in="SourceAlpha" stdDeviation="1"/><feOffset dx="1" dy="1"/><feComponentTransfer result="offsetblur"><feFuncA id="spread-ctrl" type="linear" slope="0.78"/></feComponentTransfer><feFlood flood-color="rgba(0,0,0,0.3)"/><feComposite in2="offsetblur" operator="in"/><feMerge><feMergeNode/><feMergeNode in="SourceGraphic"/></feMerge></filter></defs><g id="object-0" transform="matrix(1, 0, 0, 1, -7.105427357601002e-15, 0)"><ellipse style="paint-order: fill; fill: rgb(199, 226, 190); stroke: rgb(0, 0, 0); stroke-width: 0px;" cx="122.945" cy="151.226" rx="37.766" ry="37.766"/><path d="M 146.098 166.878 C 145.996 165.192 144.933 163.792 143.475 163.178 L 143.475 145.563 L 144.844 144.937 C 146.026 144.397 146.76 143.251 146.76 141.949 C 146.76 140.647 146.026 139.5 144.844 138.96 L 144.844 138.958 L 123.866 129.369 C 121.712 128.386 119.247 128.386 117.093 129.369 L 96.114 138.957 C 94.932 139.499 94.198 140.643 94.198 141.946 C 94.198 143.249 94.932 144.393 96.114 144.936 L 104.053 148.564 L 104.053 158.509 C 104.053 162.039 106.252 165.154 109.528 166.259 C 113.081 167.45 116.766 168.053 120.479 168.053 C 124.192 168.053 127.877 167.45 131.433 166.259 C 134.705 165.156 136.905 162.041 136.905 158.509 L 136.905 148.564 L 136.906 148.564 L 136.906 144.95 L 122.499 151.535 L 122.497 151.535 C 121.214 152.121 119.741 152.121 118.459 151.535 L 97.472 141.949 L 97.482 141.944 L 118.461 132.356 C 119.744 131.77 121.217 131.77 122.499 132.356 L 143.477 141.947 L 140.19 143.449 L 140.19 163.157 C 138.529 163.832 137.404 165.509 137.519 167.399 C 137.559 168.051 137.742 168.659 138.035 169.196 C 140.29 173.683 138.771 174.688 138.771 174.688 C 144.236 173.676 145.879 168.521 145.879 168.521 C 146.053 168.008 146.134 167.452 146.099 166.878 L 146.098 166.878 Z M 107.338 150.066 L 117.092 154.523 C 118.168 155.014 119.323 155.26 120.479 155.26 C 121.635 155.26 122.789 155.016 123.866 154.523 L 133.62 150.066 L 133.62 158.51 C 133.62 160.631 132.319 162.494 130.387 163.146 C 123.954 165.3 117 165.299 110.574 163.146 C 108.639 162.494 107.338 160.629 107.338 158.51 L 107.338 150.066 Z" fill="#1A1919" style="stroke-width: 1px; filter: url(&quot;#drop-shadow-filter-0&quot;);"/></g></svg>