<svg width="53" height="47" viewBox="0 0 53 47" fill="none" xmlns="http://www.w3.org/2000/svg">
<path d="M51.9005 38.2471C51.7979 36.5603 50.7353 35.161 49.2775 34.5471V16.9314L50.646 16.3052C51.8287 15.7652 52.5627 14.6195 52.5627 13.3178C52.5627 12.016 51.8287 10.8683 50.646 10.3283V10.3262L29.6681 0.737623C27.5143 -0.245874 25.0494 -0.245874 22.8956 0.737623L1.91669 10.3252C0.73403 10.8672 0 12.0119 0 13.3147C0 14.6175 0.73403 15.7621 1.91669 16.3042L9.8555 19.9322V29.8781C9.8555 33.4076 12.0545 36.5223 15.3304 37.628C18.8836 38.8189 22.5681 39.4215 26.2813 39.4215C29.9946 39.4215 33.6791 38.8189 37.2353 37.628C40.5071 36.5244 42.7072 33.4096 42.7072 29.8781V19.9322H42.7082V16.3186L28.3017 22.9033H28.2997C27.0164 23.4895 25.5432 23.4895 24.261 22.9033L3.27387 13.3178L3.28414 13.3126L24.263 3.72507C25.5463 3.13888 27.0195 3.13888 28.3017 3.72507L49.2796 13.3157L45.9923 14.8176V34.5256C44.3313 35.2011 43.2061 36.8775 43.3211 38.7675C43.3611 39.4194 43.5439 40.0272 43.8375 40.5651C46.0919 45.0515 44.5736 46.0565 44.5736 46.0565C50.0382 45.0443 51.6808 39.8896 51.6808 39.8896C51.8553 39.3763 51.9364 38.8209 51.9015 38.2471H51.9005ZM13.1407 21.4342L22.8945 25.8917C23.9704 26.3825 25.1254 26.6289 26.2813 26.6289C27.4373 26.6289 28.5912 26.3845 29.6681 25.8917L39.422 21.4342V29.8791C39.422 32.0001 38.1213 33.8624 36.1892 34.5143C29.7564 36.6691 22.8021 36.6681 16.3766 34.5143C14.4414 33.8624 13.1407 31.998 13.1407 29.8791V21.4342Z" fill="#1A1919"/>
</svg>
