<svg width="42" height="42" viewBox="0 0 42 42" fill="none" xmlns="http://www.w3.org/2000/svg">
<rect width="42" height="42" rx="8" fill="#F2D34D"/>
<path d="M17.011 22.7564L17.3688 22.5864L17.0607 22.3364C16.1663 21.5964 15.5203 20.6164 15.2023 19.4964L15.1526 19.3164H14.7253C13.7911 19.3164 12.8867 19.4964 12.0321 19.8564C11.1675 20.2164 10.4022 20.7364 9.73641 21.3964C9.07056 22.0564 8.56373 22.8364 8.20596 23.7064C7.84819 24.5764 7.66931 25.4864 7.66931 26.4264C7.66931 26.6764 7.76869 26.9064 7.93764 27.0864C8.10658 27.2664 8.34509 27.3664 8.59354 27.3664H12.5985L12.6681 27.2164C13.5327 25.2464 15.083 23.6664 17.0209 22.7564H17.011Z" fill="white"/>
<path d="M26.5124 19.3164H26.0851L26.0354 19.4964C25.7174 20.6264 25.0813 21.6064 24.177 22.3464L23.8689 22.5964L24.2267 22.7664C26.1646 23.6664 27.7149 25.2464 28.5795 27.2164L28.6491 27.3664H32.6839C32.9124 27.3564 33.1311 27.2564 33.3 27.0864C33.469 26.9064 33.5683 26.6764 33.5683 26.4264C33.5683 24.5264 32.8329 22.7464 31.5012 21.4064C30.1696 20.0664 28.4006 19.3264 26.5124 19.3264V19.3164Z" fill="white"/>
<path d="M13.2264 17.3645C13.7034 17.5645 14.2102 17.6645 14.727 17.6645H14.9953L15.0152 17.4345C15.1046 16.4145 15.4723 15.4445 16.0686 14.6145C16.6649 13.7845 17.4699 13.1345 18.404 12.7345L18.6127 12.6445L18.5531 12.4345C18.2748 11.5145 17.6786 10.7145 16.8636 10.2045C16.0487 9.68445 15.0848 9.48445 14.1307 9.63445C13.1866 9.78445 12.322 10.2645 11.6959 11.0045C11.0698 11.7445 10.7419 12.6745 10.7518 13.6445C10.7518 14.1745 10.8512 14.6945 11.0599 15.1945C11.2686 15.6845 11.5568 16.1245 11.9344 16.5045C12.3121 16.8845 12.7493 17.1745 13.2462 17.3745L13.2264 17.3645Z" fill="white"/>
<path d="M20.6202 23.6367C18.732 23.6367 16.963 24.3767 15.6214 25.7167C14.2897 27.0567 13.5543 28.8467 13.5543 30.7467C13.5543 30.9967 13.6537 31.2267 13.8226 31.4067C13.9916 31.5867 14.2301 31.6867 14.4786 31.6867H26.8016C27.0302 31.6767 27.2488 31.5767 27.4178 31.4067C27.5867 31.2267 27.6861 30.9967 27.6861 30.7467C27.6861 28.8467 26.9507 27.0667 25.619 25.7167C24.2873 24.3767 22.5084 23.6367 20.6301 23.6367H20.6202Z" fill="white"/>
<path d="M16.9231 16.4158C16.6249 17.1558 16.5454 17.9558 16.6945 18.7358C16.8535 19.5258 17.2311 20.2358 17.7877 20.7958C18.3442 21.3558 19.0597 21.7458 19.8349 21.8958C20.0933 21.9458 20.3616 21.9758 20.62 21.9758C21.1367 21.9758 21.6535 21.8758 22.1504 21.6658C22.8858 21.3558 23.502 20.8458 23.9492 20.1858C24.3865 19.5158 24.625 18.7458 24.625 17.9458C24.625 16.8758 24.2076 15.8658 23.4523 15.1058C22.697 14.3458 21.6734 13.9258 20.6299 13.9258C19.8349 13.9258 19.0696 14.1558 18.4038 14.6058C17.7479 15.0458 17.2311 15.6758 16.933 16.4158H16.9231Z" fill="white"/>
<path d="M25.2191 14.615C25.8154 15.445 26.1732 16.415 26.2725 17.435L26.2924 17.665H26.521C27.5744 17.665 28.608 17.235 29.3434 16.485C30.0788 15.735 30.516 14.715 30.516 13.645C30.516 12.575 30.0986 11.565 29.3434 10.805C28.5881 10.045 27.5645 9.625 26.521 9.625C25.6763 9.635 24.8613 9.915 24.1856 10.425C23.4998 10.935 23.0129 11.635 22.7545 12.445L22.6849 12.665L22.8936 12.755C23.8278 13.155 24.6328 13.805 25.2291 14.635L25.2191 14.615Z" fill="white"/>
<path d="M32.6834 20.2459C31.9579 19.4959 31.1033 18.8959 30.1592 18.4658L29.8014 18.2959L30.1095 18.0459C30.7853 17.4859 31.3318 16.7559 31.6797 15.9459C32.0374 15.1359 32.1964 14.2359 32.1468 13.3559C32.0971 12.4759 31.8387 11.6059 31.4014 10.8359C30.9641 10.0659 30.338 9.40585 29.6026 8.92585C28.8672 8.44585 28.0126 8.13585 27.138 8.03585C26.2635 7.93585 25.3691 8.04585 24.5442 8.35585C23.7194 8.66585 22.9641 9.16585 22.3678 9.81585C21.7715 10.4659 21.3243 11.2559 21.0858 12.1059L21.0361 12.2859H20.2113L20.1616 12.1059C19.9131 11.2559 19.4759 10.4659 18.8796 9.81585C18.2833 9.16585 17.528 8.66585 16.7032 8.35585C15.8783 8.04585 14.9839 7.93585 14.1094 8.03585C13.2348 8.13585 12.3802 8.44585 11.6448 8.92585C10.9093 9.40585 10.2932 10.0759 9.84599 10.8359C9.40872 11.6059 9.15033 12.4759 9.10064 13.3559C9.05095 14.2359 9.20996 15.1359 9.56772 15.9459C9.91555 16.7559 10.4621 17.4859 11.1379 18.0459L11.446 18.2959L11.0882 18.4658C9.56772 19.1658 8.28573 20.2759 7.38138 21.6959C6.46708 23.1059 6 24.7459 6 26.4259C6 26.7759 6.06957 27.1059 6.19876 27.4259C6.32795 27.7459 6.51677 28.0259 6.76522 28.2659C7.00373 28.5059 7.29193 28.6959 7.60001 28.8259C7.90809 28.9559 8.23604 29.0159 8.57393 29.0159H12.1019L12.0522 29.3059C11.9727 29.7759 11.923 30.2559 11.933 30.7259C11.933 31.4159 12.2013 32.0659 12.6783 32.5559C13.1653 33.0459 13.8013 33.3159 14.487 33.3259H26.7604C27.4362 33.3259 28.102 33.0459 28.579 32.5659C29.066 32.0759 29.3343 31.4259 29.3343 30.7359C29.3343 30.2559 29.2946 29.7759 29.2051 29.3159L29.1554 29.0259H32.6635C33.3492 29.0259 33.9952 28.7559 34.4822 28.2659C34.9691 27.7759 35.2375 27.1259 35.2375 26.4359C35.2375 25.2759 35.0188 24.1559 34.5716 23.0859C34.1343 22.0159 33.4983 21.0659 32.6834 20.2559V20.2459ZM22.7355 12.4359C22.9939 11.6259 23.4908 10.9259 24.1666 10.4159C24.8424 9.90585 25.6573 9.63585 26.502 9.61585C27.5554 9.61585 28.589 10.0459 29.3244 10.7959C30.0598 11.5459 30.4971 12.5659 30.4971 13.6359C30.4971 14.7059 30.0797 15.7158 29.3244 16.4759C28.5691 17.2359 27.5455 17.6559 26.502 17.6559H26.2734L26.2535 17.4258C26.1641 16.4058 25.7964 15.4359 25.2001 14.6059C24.6038 13.7759 23.7989 13.1259 22.8647 12.7259L22.656 12.6359L22.7256 12.4159L22.7355 12.4359ZM20.6187 13.9259C21.6722 13.9259 22.7057 14.3559 23.4411 15.1059C24.1765 15.8559 24.6138 16.8759 24.6138 17.9459C24.6138 18.7459 24.3852 19.5159 23.938 20.1859C23.5007 20.8458 22.8746 21.3659 22.1392 21.6659C21.6523 21.8659 21.1355 21.9759 20.6088 21.9759C20.3504 21.9759 20.0821 21.9459 19.8237 21.8959C19.0485 21.7359 18.333 21.3559 17.7765 20.7959C17.2199 20.2359 16.8423 19.5259 16.6833 18.7359C16.5243 17.9559 16.6038 17.1459 16.9119 16.4159C17.2199 15.6759 17.7268 15.0559 18.3827 14.6059C19.0386 14.1659 19.8138 13.9259 20.6088 13.9259H20.6187ZM11.0385 15.1859C10.8298 14.6959 10.7305 14.1759 10.7305 13.6359C10.7305 12.6659 11.0584 11.7359 11.6746 10.9959C12.2907 10.2559 13.1653 9.77585 14.1094 9.62585C15.0634 9.47585 16.0274 9.68585 16.8423 10.1959C17.6572 10.7059 18.2535 11.5059 18.5318 12.4259L18.5914 12.6359L18.3827 12.7259C17.4485 13.1259 16.6435 13.7759 16.0473 14.6059C15.451 15.4359 15.0932 16.4058 14.9938 17.4258L14.974 17.6559H14.7454C14.7454 17.6559 14.7156 17.6559 14.7056 17.6559C14.1889 17.6559 13.682 17.5559 13.205 17.3559C12.7181 17.1559 12.2708 16.8659 11.8932 16.4859C11.5156 16.1059 11.2274 15.6659 11.0187 15.1759L11.0385 15.1859ZM12.6485 27.2159L12.5789 27.3659H8.58387C8.33542 27.3659 8.10685 27.2659 7.92796 27.0859C7.75902 26.9059 7.65964 26.6759 7.65964 26.4259C7.65964 25.4859 7.83852 24.5659 8.19629 23.7059C8.55405 22.8359 9.07083 22.0659 9.72673 21.3959C10.3826 20.7259 11.1578 20.2158 12.0224 19.8559C12.8771 19.4959 13.7914 19.3159 14.7156 19.3159H15.1429L15.1926 19.4959C15.5106 20.6159 16.1566 21.5959 17.051 22.3359L17.3591 22.5859L17.0013 22.7559C15.0634 23.6659 13.5131 25.2459 12.6485 27.2159ZM27.4163 31.3959C27.2473 31.5659 27.0386 31.6659 26.8001 31.6759H14.4771C14.2286 31.6759 13.9901 31.5759 13.8212 31.3959C13.6522 31.2159 13.5528 30.9859 13.5528 30.7359C13.5528 28.8359 14.2883 27.0559 15.6199 25.7059C16.9516 24.3659 18.7305 23.6259 20.6187 23.6259C22.5069 23.6259 24.2759 24.3659 25.6076 25.7059C26.9393 27.0459 27.6747 28.8359 27.6747 30.7359C27.6747 30.9859 27.5753 31.2159 27.4064 31.3959H27.4163ZM33.3095 27.0859C33.1505 27.2559 32.9319 27.3559 32.6933 27.3659H28.6585L28.589 27.2159C27.7244 25.2559 26.174 23.6758 24.2361 22.7659L23.8784 22.5958L24.1865 22.3458C25.0809 21.6059 25.7268 20.6259 26.0449 19.4959L26.0945 19.3159H26.5219C28.4101 19.3159 30.179 20.0559 31.5107 21.3959C32.8424 22.7359 33.5778 24.5159 33.5778 26.4159C33.5778 26.6659 33.4784 26.8959 33.3095 27.0759V27.0859Z" fill="#201F1F"/>
</svg>
