<svg width="42" height="42" viewBox="0 0 42 42" fill="none" xmlns="http://www.w3.org/2000/svg">
<rect width="42" height="42" rx="8" fill="#F2D34D"/>
<path d="M22.4965 26.1457L25.1459 28.7593L26.4705 27.4475L27.8054 28.7593L26.4705 30.061L28.0622 31.615L32.0464 27.7199L26.4808 22.2305L22.4965 26.1457Z" fill="white"/>
<path d="M19.8386 15.7333L14.2729 10.2539L10.2784 14.1692L11.87 15.7333L13.205 14.4215L14.5296 15.7333L13.205 17.035L15.8543 19.6485L19.8386 15.7333Z" fill="white"/>
<path d="M10.1665 27.8421C9.79686 28.2053 9.79686 28.7906 10.1665 29.1539L12.8261 31.7674C13.1958 32.1206 13.7914 32.1206 14.1611 31.7674L16.2456 29.6786L12.2716 25.7734L10.1871 27.8522L10.1665 27.8421Z" fill="white"/>
<path d="M31.4427 14.0572L32.2026 10.1016L28.1567 10.8483C27.6022 10.9492 27.0887 11.2217 26.6883 11.6152L13.5956 24.4609L17.5799 28.3762L30.6725 15.5103C31.073 15.1167 31.34 14.6122 31.4427 14.0673V14.0572Z" fill="white"/>
<path d="M34.0517 27.0441L27.8084 20.9189L31.9877 16.8119C32.6552 16.156 33.107 15.3083 33.2816 14.3901L34.3187 9.09234C34.3701 8.7997 34.2777 8.49698 34.062 8.28507C33.8464 8.07316 33.5383 7.98234 33.2405 8.0227L27.8494 9.01161C26.915 9.18316 26.0524 9.62716 25.385 10.2831L21.1645 14.3901L14.9314 8.26489C14.5617 7.9117 13.9661 7.9117 13.5965 8.26489L8.27726 13.492C7.90758 13.8552 7.90758 14.4304 8.27726 14.7937L14.5206 20.9189L8.83177 26.4992C7.73301 27.5789 7.73301 29.3347 8.83177 30.4144L11.4914 33.028C12.5901 34.1077 14.3769 34.1077 15.4756 33.028L21.1542 27.4376L27.3874 33.5628C27.7468 33.9261 28.3423 33.9261 28.712 33.5628L34.0312 28.3458C34.4009 27.9926 34.4009 27.4073 34.0312 27.0441H34.0517ZM13.2062 17.0339L14.5412 15.7221L13.2062 14.4103L11.8713 15.7221L10.2899 14.1681L14.2742 10.2528L19.8501 15.7322L15.8658 19.6474L13.2062 17.0339ZM14.151 31.7666C13.7813 32.1198 13.1857 32.1198 12.816 31.7666L10.1564 29.1531C9.78676 28.7898 9.78676 28.2045 10.1564 27.8412L12.241 25.7625L16.215 29.6677L14.1304 31.7565L14.151 31.7666ZM17.5705 28.366L13.5862 24.4507L26.6788 11.605C27.0793 11.2114 27.5927 10.939 28.1472 10.8381L32.1931 10.0913L31.4332 14.047C31.3305 14.5919 31.0636 15.0964 30.6631 15.49L17.5705 28.3559V28.366ZM28.0651 31.6152L26.4837 30.0613L27.8186 28.7595L26.4837 27.4477L25.159 28.7595L22.4994 26.146L26.4837 22.2307L32.0494 27.7202L28.0651 31.6152Z" fill="#201F1F"/>
</svg>
