<svg width="42" height="42" viewBox="0 0 42 42" fill="none" xmlns="http://www.w3.org/2000/svg">
<rect width="42" height="42" rx="8" fill="#F2D34D"/>
<g clip-path="url(#clip0_254_2122)">
<path d="M27.3032 7.76074V7.76172L32.5044 8.97754H32.5054C32.7031 9.02349 32.855 9.20619 32.855 9.43262C32.8548 22.0215 22.7854 32.1893 10.4009 32.1895C10.2214 32.1895 10.057 32.0794 9.98584 31.9072L9.96143 31.8301L8.76123 26.5615C8.71109 26.3399 8.82516 26.1093 9.03076 26.0156L14.6304 23.5859C14.8066 23.5096 15.0168 23.5571 15.1479 23.7188L17.6284 26.7891L18.0005 27.249L18.5337 26.9951C22.6111 25.0591 25.882 21.6972 27.7544 17.6562L27.9976 17.1318L27.5532 16.7627L24.522 14.25L24.5181 14.2471C24.3653 14.1221 24.3065 13.8964 24.3892 13.7012L26.7886 8.03027C26.8782 7.82141 27.0994 7.71365 27.3032 7.76074Z" fill="white" stroke="black" stroke-width="1.5"/>
</g>
<defs>
<clipPath id="clip0_254_2122">
<rect width="25.6054" height="25.9385" fill="white" transform="translate(8 7)"/>
</clipPath>
</defs>
</svg>
